<mxfile host="app.diagrams.net" modified="2023-10-10T12:32:20.760Z" agent="Mozilla/5.0 (Windows NT 10.0; Win64; x64) AppleWebKit/537.36 (KHTML, like Gecko) Chrome/117.0.0.0 Safari/537.36" etag="ad57DcfuQ616Qu71EqyP" version="22.0.4" type="device">
  <diagram name="Page-1" id="Kw94nkuLWIEuF8FrerKN">
    <mxGraphModel dx="1221" dy="622" grid="1" gridSize="10" guides="1" tooltips="1" connect="1" arrows="1" fold="1" page="1" pageScale="1" pageWidth="827" pageHeight="1169" math="0" shadow="0">
      <root>
        <mxCell id="0" />
        <mxCell id="1" parent="0" />
        <mxCell id="Qu5GgFM-KOHoeXPj7MdU-22" value="" style="rounded=0;whiteSpace=wrap;html=1;fillColor=#e1d5e7;strokeColor=#9673a6;" parent="1" vertex="1">
          <mxGeometry x="30" y="540" width="590" height="480" as="geometry" />
        </mxCell>
        <mxCell id="Qu5GgFM-KOHoeXPj7MdU-1" value="" style="rounded=0;whiteSpace=wrap;html=1;fillColor=#dae8fc;strokeColor=#6c8ebf;" parent="1" vertex="1">
          <mxGeometry x="50" y="585" width="550" height="355" as="geometry" />
        </mxCell>
        <mxCell id="Qu5GgFM-KOHoeXPj7MdU-2" value="&lt;div style=&quot;border-color: var(--border-color); text-align: justify; line-height: 18px;&quot;&gt;&lt;b style=&quot;border-color: var(--border-color); background-color: initial;&quot;&gt;length of phrase (4 bytes)&lt;/b&gt;&lt;/div&gt;&lt;div style=&quot;border-color: var(--border-color); text-align: justify; line-height: 18px;&quot;&gt;&lt;b style=&quot;border-color: var(--border-color); background-color: initial;&quot;&gt;type:&amp;nbsp;&lt;/b&gt;int&amp;nbsp; &amp;nbsp;&lt;b style=&quot;border-color: var(--border-color);&quot;&gt;pos:&lt;/b&gt;&amp;nbsp;0&lt;/div&gt;&lt;div style=&quot;border-color: var(--border-color); text-align: justify; line-height: 18px;&quot;&gt;&lt;b style=&quot;border-color: var(--border-color); background-color: initial;&quot;&gt;binary:&amp;nbsp;&lt;/b&gt;0x00 0x00 0x00 0xcd&lt;/div&gt;&lt;div style=&quot;border-color: var(--border-color); text-align: justify; line-height: 18px;&quot;&gt;&lt;b style=&quot;border-color: var(--border-color); background-color: initial;&quot;&gt;value: &lt;/b&gt;&lt;span style=&quot;border-color: var(--border-color); background-color: initial;&quot;&gt;205&lt;/span&gt;&lt;/div&gt;" style="rounded=0;whiteSpace=wrap;html=1;fillColor=#dae8fc;strokeColor=#6c8ebf;" parent="1" vertex="1">
          <mxGeometry x="51" y="585" width="179" height="75" as="geometry" />
        </mxCell>
        <mxCell id="Qu5GgFM-KOHoeXPj7MdU-7" value="&lt;div style=&quot;text-align: justify;&quot;&gt;&lt;b style=&quot;background-color: initial;&quot;&gt;start time &amp;lt;8 byte&amp;gt;&lt;/b&gt;&lt;/div&gt;&lt;div style=&quot;border-color: var(--border-color); text-align: justify; line-height: 18px;&quot;&gt;&lt;b style=&quot;border-color: var(--border-color); background-color: initial;&quot;&gt;type: &lt;/b&gt;&lt;span style=&quot;border-color: var(--border-color); background-color: initial;&quot;&gt;long&amp;nbsp; &amp;nbsp;&lt;/span&gt;&lt;b style=&quot;border-color: var(--border-color);&quot;&gt;pos:&lt;/b&gt;&amp;nbsp;4&lt;/div&gt;&lt;div style=&quot;border-color: var(--border-color); text-align: justify; line-height: 18px;&quot;&gt;&lt;b style=&quot;border-color: var(--border-color); background-color: initial;&quot;&gt;binary:&amp;nbsp;&lt;/b&gt;0x00 0x00 0x01 0x89 0x87 0xdd 0x58 0xb9&lt;/div&gt;&lt;div style=&quot;border-color: var(--border-color); text-align: justify; line-height: 18px;&quot;&gt;&lt;b style=&quot;border-color: var(--border-color); background-color: initial;&quot;&gt;value:&amp;nbsp;&lt;/b&gt;1690201577657&lt;/div&gt;" style="rounded=0;whiteSpace=wrap;html=1;fillColor=#dae8fc;strokeColor=#6c8ebf;" parent="1" vertex="1">
          <mxGeometry x="230" y="585" width="290" height="75" as="geometry" />
        </mxCell>
        <mxCell id="Qu5GgFM-KOHoeXPj7MdU-13" value="&lt;b&gt;&lt;font style=&quot;font-size: 25px;&quot;&gt;...&lt;/font&gt;&lt;/b&gt;" style="rounded=0;whiteSpace=wrap;html=1;fillColor=#d5e8d4;strokeColor=#82b366;" parent="1" vertex="1">
          <mxGeometry x="60" y="885" width="530" height="40" as="geometry" />
        </mxCell>
        <mxCell id="Qu5GgFM-KOHoeXPj7MdU-23" value="&lt;font style=&quot;font-size: 17px;&quot;&gt;&lt;b&gt;Suspend Stream&lt;/b&gt;&lt;/font&gt;" style="text;html=1;strokeColor=none;fillColor=none;align=center;verticalAlign=middle;whiteSpace=wrap;rounded=0;" parent="1" vertex="1">
          <mxGeometry x="244.5" y="546" width="160" height="30" as="geometry" />
        </mxCell>
        <mxCell id="Qu5GgFM-KOHoeXPj7MdU-24" value="&lt;div style=&quot;text-align: justify; line-height: 150%;&quot;&gt;&lt;span style=&quot;background-color: initial;&quot;&gt;suspend delta(1-4 bytes)&lt;/span&gt;&lt;/div&gt;&lt;div style=&quot;text-align: justify; line-height: 150%;&quot;&gt;&lt;span style=&quot;background-color: initial;&quot;&gt;type: &lt;/span&gt;&lt;span style=&quot;background-color: initial;&quot;&gt;varint&amp;nbsp; &amp;nbsp;pos: &lt;span style=&quot;font-weight: 400;&quot;&gt;12&lt;/span&gt;&lt;/span&gt;&lt;/div&gt;&lt;div style=&quot;text-align: justify; line-height: 150%;&quot;&gt;&lt;span style=&quot;background-color: initial;&quot;&gt;binary:&amp;nbsp;&lt;/span&gt;&lt;span style=&quot;font-weight: normal;&quot;&gt;0x56&lt;/span&gt;&lt;/div&gt;&lt;div style=&quot;text-align: justify; line-height: 150%;&quot;&gt;&lt;span style=&quot;background-color: initial;&quot;&gt;value: &lt;span style=&quot;font-weight: 400;&quot;&gt;86&lt;/span&gt;&lt;/span&gt;&lt;/div&gt;" style="rounded=0;whiteSpace=wrap;html=1;fillColor=#d5e8d4;strokeColor=#82b366;align=center;fontStyle=1" parent="1" vertex="1">
          <mxGeometry x="60" y="675" width="250" height="100" as="geometry" />
        </mxCell>
        <mxCell id="Qu5GgFM-KOHoeXPj7MdU-25" value="&lt;b&gt;Phrase #1&lt;/b&gt;" style="text;html=1;strokeColor=none;fillColor=none;align=center;verticalAlign=middle;whiteSpace=wrap;rounded=0;" parent="1" vertex="1">
          <mxGeometry x="492.69461538461525" y="546.67" width="134.6153846153846" height="113.33333333333334" as="geometry" />
        </mxCell>
        <mxCell id="Qu5GgFM-KOHoeXPj7MdU-39" value="" style="rounded=0;whiteSpace=wrap;html=1;fillColor=#dae8fc;strokeColor=#6c8ebf;" parent="1" vertex="1">
          <mxGeometry x="50" y="948" width="549" height="60" as="geometry" />
        </mxCell>
        <mxCell id="Qu5GgFM-KOHoeXPj7MdU-40" value="&lt;b&gt;Phrase #n&lt;/b&gt;" style="text;html=1;strokeColor=none;fillColor=none;align=center;verticalAlign=middle;whiteSpace=wrap;rounded=0;" parent="1" vertex="1">
          <mxGeometry x="492.69461538461525" y="907" width="134.6153846153846" height="113.33333333333334" as="geometry" />
        </mxCell>
        <mxCell id="Qu5GgFM-KOHoeXPj7MdU-41" value="&lt;div style=&quot;text-align: justify;&quot;&gt;&lt;span style=&quot;background-color: initial;&quot;&gt;suspend delay&lt;/span&gt;&lt;span style=&quot;background-color: initial;&quot;&gt;(1-4 bytes)&lt;/span&gt;&lt;/div&gt;&lt;div style=&quot;text-align: justify; line-height: 150%;&quot;&gt;&lt;span style=&quot;background-color: initial;&quot;&gt;type: &lt;/span&gt;&lt;span style=&quot;background-color: initial;&quot;&gt;varint&amp;nbsp; &amp;nbsp;pos: &lt;span style=&quot;font-weight: 400;&quot;&gt;13&lt;/span&gt;&lt;/span&gt;&lt;/div&gt;&lt;div style=&quot;text-align: justify; line-height: 150%;&quot;&gt;&lt;span style=&quot;background-color: initial;&quot;&gt;binary:&amp;nbsp;&lt;/span&gt;&lt;span style=&quot;font-weight: normal;&quot;&gt;0x43&lt;/span&gt;&lt;/div&gt;&lt;div style=&quot;text-align: justify; line-height: 150%;&quot;&gt;&lt;span style=&quot;background-color: initial;&quot;&gt;value: &lt;span style=&quot;font-weight: 400;&quot;&gt;67&lt;/span&gt;&lt;/span&gt;&lt;/div&gt;" style="rounded=0;whiteSpace=wrap;html=1;fillColor=#d5e8d4;strokeColor=#82b366;align=center;fontStyle=1" parent="1" vertex="1">
          <mxGeometry x="310" y="675" width="280" height="100" as="geometry" />
        </mxCell>
        <mxCell id="Qu5GgFM-KOHoeXPj7MdU-42" value="&lt;div style=&quot;text-align: justify; line-height: 150%;&quot;&gt;&lt;span style=&quot;background-color: initial;&quot;&gt;suspend delta(1-4 bytes)&lt;/span&gt;&lt;/div&gt;&lt;div style=&quot;text-align: justify; line-height: 150%;&quot;&gt;&lt;span style=&quot;background-color: initial;&quot;&gt;type: &lt;/span&gt;&lt;span style=&quot;background-color: initial;&quot;&gt;varint&amp;nbsp; &amp;nbsp;pos: &lt;span style=&quot;font-weight: 400;&quot;&gt;14&lt;/span&gt;&lt;/span&gt;&lt;/div&gt;&lt;div style=&quot;text-align: justify; line-height: 150%;&quot;&gt;&lt;span style=&quot;background-color: initial;&quot;&gt;binary:&amp;nbsp;&lt;/span&gt;&lt;span style=&quot;font-weight: normal;&quot;&gt;0x64&lt;/span&gt;&lt;/div&gt;&lt;div style=&quot;text-align: justify; line-height: 150%;&quot;&gt;&lt;span style=&quot;background-color: initial;&quot;&gt;value: &lt;span style=&quot;font-weight: 400;&quot;&gt;100&lt;/span&gt;&lt;/span&gt;&lt;/div&gt;" style="rounded=0;whiteSpace=wrap;html=1;fillColor=#d5e8d4;strokeColor=#82b366;align=center;fontStyle=1" parent="1" vertex="1">
          <mxGeometry x="60" y="780" width="250" height="100" as="geometry" />
        </mxCell>
        <mxCell id="Qu5GgFM-KOHoeXPj7MdU-43" value="&lt;div style=&quot;text-align: justify;&quot;&gt;&lt;span style=&quot;background-color: initial;&quot;&gt;suspend delay&lt;/span&gt;&lt;span style=&quot;background-color: initial;&quot;&gt;(1-4 bytes)&lt;/span&gt;&lt;/div&gt;&lt;div style=&quot;text-align: justify; line-height: 150%;&quot;&gt;&lt;span style=&quot;background-color: initial;&quot;&gt;type: &lt;/span&gt;&lt;span style=&quot;background-color: initial;&quot;&gt;varint&amp;nbsp; &amp;nbsp;pos: &lt;span style=&quot;font-weight: normal;&quot;&gt;1&lt;/span&gt;&lt;span style=&quot;font-weight: 400;&quot;&gt;5&lt;/span&gt;&lt;/span&gt;&lt;/div&gt;&lt;div style=&quot;text-align: justify; line-height: 150%;&quot;&gt;&lt;span style=&quot;background-color: initial;&quot;&gt;binary:&amp;nbsp;&lt;/span&gt;&lt;span style=&quot;font-weight: normal;&quot;&gt;0x40&lt;/span&gt;&lt;/div&gt;&lt;div style=&quot;text-align: justify; line-height: 150%;&quot;&gt;&lt;span style=&quot;background-color: initial;&quot;&gt;value: &lt;span style=&quot;font-weight: 400;&quot;&gt;64&lt;/span&gt;&lt;/span&gt;&lt;/div&gt;" style="rounded=0;whiteSpace=wrap;html=1;fillColor=#d5e8d4;strokeColor=#82b366;align=center;fontStyle=1" parent="1" vertex="1">
          <mxGeometry x="310" y="780" width="280" height="100" as="geometry" />
        </mxCell>
      </root>
    </mxGraphModel>
  </diagram>
</mxfile>
